<svg width="27" height="21" viewBox="0 0 27 21" fill="none" xmlns="http://www.w3.org/2000/svg">
<path d="M26.1 9.69231H24.822L21.7406 4.85222C21.5832 4.60502 21.3557 4.39956 21.0813 4.25666C20.8069 4.11376 20.4953 4.03848 20.178 4.03847H17.7097L16.3597 1.01568C16.2272 0.715571 15.9971 0.458206 15.6993 0.277062C15.4016 0.0959185 15.05 -0.000618723 14.6902 8.21931e-06H12.3097C11.9496 -0.00102472 11.5976 0.095323 11.2994 0.276493C11.0012 0.457663 10.7707 0.71525 10.638 1.01568L9.29025 4.03847H6.822C6.50473 4.03848 6.1931 4.11376 5.91869 4.25666C5.64427 4.39956 5.41682 4.60502 5.25938 4.85222L2.178 9.69231H0.9C0.661305 9.69231 0.432387 9.77741 0.263604 9.92888C0.0948211 10.0804 0 10.2858 0 10.5C0 10.7142 0.0948211 10.9197 0.263604 11.0711C0.432387 11.2226 0.661305 11.3077 0.9 11.3077H1.8V19.3846C1.8 19.813 1.98964 20.2239 2.32721 20.5269C2.66477 20.8298 3.12261 21 3.6 21H6.3C6.77739 21 7.23523 20.8298 7.57279 20.5269C7.91036 20.2239 8.1 19.813 8.1 19.3846V17.7692H18.9V19.3846C18.9 19.813 19.0896 20.2239 19.4272 20.5269C19.7648 20.8298 20.2226 21 20.7 21H23.4C23.8774 21 24.3352 20.8298 24.6728 20.5269C25.0104 20.2239 25.2 19.813 25.2 19.3846V11.3077H26.1C26.3387 11.3077 26.5676 11.2226 26.7364 11.0711C26.9052 10.9197 27 10.7142 27 10.5C27 10.2858 26.9052 10.0804 26.7364 9.92888C26.5676 9.77741 26.3387 9.69231 26.1 9.69231ZM12.3097 1.61539H14.6902L15.7702 4.03847H11.2297L12.3097 1.61539ZM6.822 5.65385H20.178L22.7486 9.69231H4.25138L6.822 5.65385ZM6.3 19.3846H3.6V17.7692H6.3V19.3846ZM20.7 19.3846V17.7692H23.4V19.3846H20.7ZM23.4 16.1538H3.6V11.3077H23.4V16.1538ZM5.4 13.7308C5.4 13.5166 5.49482 13.3111 5.6636 13.1596C5.83239 13.0082 6.06131 12.9231 6.3 12.9231H8.1C8.33869 12.9231 8.56761 13.0082 8.7364 13.1596C8.90518 13.3111 9 13.5166 9 13.7308C9 13.945 8.90518 14.1504 8.7364 14.3019C8.56761 14.4534 8.33869 14.5385 8.1 14.5385H6.3C6.06131 14.5385 5.83239 14.4534 5.6636 14.3019C5.49482 14.1504 5.4 13.945 5.4 13.7308ZM18 13.7308C18 13.5166 18.0948 13.3111 18.2636 13.1596C18.4324 13.0082 18.6613 12.9231 18.9 12.9231H20.7C20.9387 12.9231 21.1676 13.0082 21.3364 13.1596C21.5052 13.3111 21.6 13.5166 21.6 13.7308C21.6 13.945 21.5052 14.1504 21.3364 14.3019C21.1676 14.4534 20.9387 14.5385 20.7 14.5385H18.9C18.6613 14.5385 18.4324 14.4534 18.2636 14.3019C18.0948 14.1504 18 13.945 18 13.7308Z" fill="black"/>
</svg>
