<svg width="24" height="18" viewBox="0 0 24 18" fill="none" xmlns="http://www.w3.org/2000/svg">
<path d="M20.125 16.5833C21.6208 16.5833 22.8333 15.3708 22.8333 13.875C22.8333 12.3792 21.6208 11.1667 20.125 11.1667C18.6292 11.1667 17.4167 12.3792 17.4167 13.875C17.4167 15.3708 18.6292 16.5833 20.125 16.5833Z" stroke="black" stroke-width="1.5" stroke-linecap="round" stroke-linejoin="round"/>
<path d="M3.87499 16.5833C5.37076 16.5833 6.58332 15.3708 6.58332 13.875C6.58332 12.3792 5.37076 11.1667 3.87499 11.1667C2.37922 11.1667 1.16666 12.3792 1.16666 13.875C1.16666 15.3708 2.37922 16.5833 3.87499 16.5833Z" stroke="black" stroke-width="1.5" stroke-linecap="round" stroke-linejoin="round"/>
<path d="M20.9212 4.52582C22.309 6.21474 22.7922 7.82132 22.8322 8.67066C22.0785 8.3264 21.2591 8.14937 20.4305 8.15174C17.7817 8.15174 15.4038 9.91324 14.8362 12.2597C14.6997 12.8209 14.6325 13.1015 14.4852 13.2174C14.3378 13.3333 14.0995 13.3333 13.6239 13.3333H10.5061C10.0262 13.3333 9.78675 13.3333 9.63942 13.2163C9.491 13.0972 9.426 12.8187 9.29708 12.2597C8.75975 9.94357 6.58008 7.92966 4.3105 8.09974C4.08192 8.11816 3.96708 8.12682 3.888 8.10841C3.81108 8.09107 3.732 8.04666 3.57383 7.95674C3.11775 7.69999 2.65192 7.45516 2.2045 7.18324C1.89781 6.99632 1.64239 6.73609 1.46123 6.42596C1.28007 6.11583 1.17884 5.76553 1.16667 5.40657C1.15258 4.99057 1.39092 4.57891 1.873 4.69157L8.828 6.32849C9.35125 6.45199 9.61233 6.51266 9.83658 6.47149C10.0608 6.43032 10.3371 6.24182 10.8874 5.86482C12.2827 4.91149 14.4949 4.00907 16.6995 4.80532C17.3029 5.02307 17.6052 5.13249 17.7763 5.13791C17.9497 5.14332 18.201 5.06966 18.7047 4.92341C19.4265 4.71028 20.1694 4.57696 20.9202 4.52582C20.0513 3.46632 18.825 2.37541 17.1285 1.41666" stroke="black" stroke-width="1.5" stroke-linecap="round" stroke-linejoin="round"/>
</svg>
