<svg width="21" height="18" viewBox="0 0 21 18" fill="none" xmlns="http://www.w3.org/2000/svg">
<path fill-rule="evenodd" clip-rule="evenodd" d="M8.5735 1.15117C8.73724 1.32013 8.82921 1.54916 8.82921 1.78796C8.82921 2.02675 8.73724 2.25579 8.5735 2.42475L3.07087 8.09577H19.6137C19.8456 8.09577 20.068 8.19071 20.232 8.3597C20.396 8.5287 20.4881 8.7579 20.4881 8.99689C20.4881 9.23588 20.396 9.46508 20.232 9.63408C20.068 9.80307 19.8456 9.89801 19.6137 9.89801H3.07087L8.5735 15.569C8.6594 15.6515 8.72831 15.751 8.7761 15.8615C8.82388 15.9721 8.84958 16.0914 8.85165 16.2124C8.85372 16.3334 8.83213 16.4536 8.78815 16.5658C8.74418 16.678 8.67872 16.7799 8.59569 16.8655C8.51267 16.9511 8.41377 17.0185 8.30489 17.0638C8.19602 17.1092 8.07941 17.1314 7.96201 17.1293C7.8446 17.1271 7.72882 17.1007 7.62157 17.0514C7.51432 17.0022 7.41779 16.9311 7.33774 16.8426L0.342867 9.63368C0.179129 9.46472 0.0871582 9.23569 0.0871582 8.99689C0.0871582 8.75809 0.179129 8.52906 0.342867 8.3601L7.33774 1.15117C7.50168 0.982419 7.72391 0.887634 7.95562 0.887634C8.18733 0.887634 8.40956 0.982419 8.5735 1.15117Z" fill="#52A2EB"/>
</svg>
