<svg width="21" height="21" viewBox="0 0 21 21" fill="none" xmlns="http://www.w3.org/2000/svg">
<path d="M7.375 5.29169H9.45833V10.5H14.6667V12.5834H7.375V5.29169Z" fill="black"/>
<path fill-rule="evenodd" clip-rule="evenodd" d="M20.9167 10.5C20.9167 16.2531 16.2531 20.9167 10.5 20.9167C4.74687 20.9167 0.0833282 16.2531 0.0833282 10.5C0.0833282 4.74689 4.74687 0.0833435 10.5 0.0833435C16.2531 0.0833435 20.9167 4.74689 20.9167 10.5ZM18.8333 10.5C18.8333 12.7101 17.9554 14.8298 16.3926 16.3926C14.8298 17.9554 12.7101 18.8333 10.5 18.8333C8.28986 18.8333 6.17024 17.9554 4.60744 16.3926C3.04464 14.8298 2.16666 12.7101 2.16666 10.5C2.16666 8.28987 3.04464 6.17026 4.60744 4.60745C6.17024 3.04465 8.28986 2.16668 10.5 2.16668C12.7101 2.16668 14.8298 3.04465 16.3926 4.60745C17.9554 6.17026 18.8333 8.28987 18.8333 10.5Z" fill="black"/>
</svg>
