<svg width="22" height="22" viewBox="0 0 22 22" fill="none" xmlns="http://www.w3.org/2000/svg">
<path d="M16.5 1.47387C18.1722 2.43932 19.5608 3.82794 20.5263 5.50015C21.4918 7.17236 22 9.06925 22 11.0001C22 12.9311 21.4917 14.8279 20.5262 16.5001C19.5608 18.1723 18.1721 19.5609 16.4999 20.5264C14.8276 21.4918 12.9307 22 10.9998 22C9.06891 22 7.17202 21.4917 5.49982 20.5262C3.82762 19.5607 2.43902 18.1721 1.4736 16.4998C0.508178 14.8276 -4.90486e-05 12.9307 3.55042e-09 10.9998L0.00550013 10.6434C0.0671035 8.74371 0.619902 6.89239 1.61 5.26994C2.6001 3.64748 3.99372 2.30926 5.65498 1.38574C7.31624 0.462222 9.18846 -0.0150818 11.0891 0.000363268C12.9898 0.0158083 14.854 0.523475 16.5 1.47387ZM2.2 10.9998C2.20007 13.1431 2.98238 15.2128 4.40009 16.8202C5.81781 18.4277 7.77346 19.4625 9.9 19.7304V14.1128C9.39518 13.9345 8.94132 13.636 8.57759 13.2431C8.21386 12.8503 7.95117 12.3748 7.8122 11.8578L2.2352 10.2034C2.21247 10.4674 2.20073 10.7332 2.2 11.0009M19.7637 10.2034L14.1878 11.8567C14.0491 12.3738 13.7866 12.8494 13.4231 13.2425C13.0596 13.6355 12.6058 13.9342 12.1011 14.1128V19.7315C14.3189 19.452 16.3473 18.339 17.7743 16.6184C19.2013 14.8978 19.9201 12.6986 19.7846 10.4674L19.7637 10.2034ZM6.6 3.37906C4.79029 4.42399 3.41151 6.07884 2.7104 8.04742L8.0036 9.61601C8.26773 9.04359 8.6903 8.5588 9.22132 8.219C9.75233 7.87921 10.3696 7.69863 11 7.69863C11.6304 7.69863 12.2477 7.87921 12.7787 8.219C13.3097 8.5588 13.7323 9.04359 13.9964 9.61601L19.2896 8.04742C18.8567 6.83213 18.1619 5.72687 17.2544 4.80993C16.3469 3.893 15.2489 3.18681 14.0381 2.74138C12.8274 2.29595 11.5335 2.12219 10.2481 2.23238C8.96271 2.34258 7.71728 2.73405 6.6 3.37906Z" fill="black"/>
</svg>
