<svg width="21" height="20" viewBox="0 0 21 20" fill="none" xmlns="http://www.w3.org/2000/svg">
<path d="M10.5 19.7778C8.47823 19.7778 6.50187 19.2043 4.82083 18.1299C3.1398 17.0555 1.82959 15.5285 1.0559 13.7418C0.2822 11.9551 0.0797661 9.98916 0.474193 8.09246C0.868619 6.19576 1.84219 4.45352 3.27179 3.08608C4.7014 1.71863 6.52282 0.787388 8.50574 0.410111C10.4887 0.032833 12.544 0.226466 14.4119 0.966522C16.2797 1.70658 17.8762 2.95982 18.9995 4.56777C20.1227 6.17572 20.7222 8.06615 20.7222 10C20.7222 12.5932 19.6452 15.0803 17.7282 16.9139C15.8112 18.7476 13.2111 19.7778 10.5 19.7778ZM10.5 1.44446C8.73095 1.44446 7.00164 1.94623 5.53073 2.88633C4.05982 3.82642 2.91339 5.16262 2.23641 6.72594C1.55942 8.28926 1.38229 10.0095 1.72742 11.6691C2.07254 13.3287 2.92442 14.8532 4.17532 16.0497C5.42622 17.2462 7.01997 18.0611 8.75502 18.3912C10.4901 18.7213 12.2885 18.5519 13.9229 17.9043C15.5573 17.2568 16.9542 16.1602 17.937 14.7532C18.9199 13.3463 19.4444 11.6921 19.4444 10C19.4444 7.73094 18.5021 5.5548 16.8247 3.95032C15.1473 2.34584 12.8722 1.44446 10.5 1.44446Z" fill="#89AED0"/>
<ellipse cx="10.5" cy="9.99999" rx="4.92857" ry="4.71429" fill="#89AED0"/>
</svg>
